<?xml version="1.0" encoding="UTF-8"?>
<svg version="1.1" xmlns="http://www.w3.org/2000/svg" width="32" height="32">
<path d="M0 0 C0 1.98 0 3.96 0 6 C1.32 6.66 2.64 7.32 4 8 C4.36308044 13.10329727 4.58277658 16.87463833 2.1875 21.5 C-0.49462055 24.56528063 -2.05794818 25.88882618 -6.14453125 26.37109375 C-17.27006996 26.57251458 -17.27006996 26.57251458 -20.6875 23.875 C-24.15220915 19.56752375 -26.0315436 16.89261613 -25.9375 11.25 C-25 8 -25 8 -22.9375 6.5625 C-21.9784375 6.2840625 -21.9784375 6.2840625 -21 6 C-21.061875 5.236875 -21.12375 4.47375 -21.1875 3.6875 C-21 1 -21 1 -19.75 -0.75 C-13.69858548 -5.07243895 -5.95413187 -3.57247912 0 0 Z M-12.625 10.5 C-13.40875 11.325 -14.1925 12.15 -15 13 C-12.36 13.99 -9.72 14.98 -7 16 C-7.33 13.36 -7.66 10.72 -8 8 C-10.36278736 7.77011494 -10.36278736 7.77011494 -12.625 10.5 Z " fill="#7FBF3B" transform="translate(28,4)"/>
<path d="M0 0 C-0.32626495 6.32278971 -0.61504892 11.55464391 -4 17 C-4.99 17 -5.98 17 -7 17 C-7.66 13.04 -8.32 9.08 -9 5 C-14.94 5.495 -14.94 5.495 -21 6 C-21 1 -21 1 -19.75 -0.75 C-13.69858548 -5.07243895 -5.95413187 -3.57247912 0 0 Z " fill="#6BBDEF" transform="translate(28,4)"/>
<path d="M0 0 C4 1 4 1 5 2 C5.58046897 7.05293483 5.54901225 10.93983841 3.1875 15.5 C0.4688616 18.60701531 -1.01950094 19.92309811 -5.1875 20.25 C-10.23592084 19.4409582 -12.64360715 15.01159032 -15.49609375 11.15234375 C-15.99238281 10.44207031 -16.48867188 9.73179688 -17 9 C-16.67 8.34 -16.34 7.68 -16 7 C-11.15340923 7.59104765 -7.39251833 8.97944157 -3 11 C-2.01 7.37 -1.02 3.74 0 0 Z " fill="#F09316" transform="translate(27,10)"/>
<path d="M0 0 C-0.33 0.66 -0.66 1.32 -1 2 C0.32 2.66 1.64 3.32 3 4 C3 4.99 3 5.98 3 7 C-2.94 7.495 -2.94 7.495 -9 8 C-9 3 -9 3 -7.75 1.25 C-5.03027335 -0.69266189 -3.07077395 -1.53538697 0 0 Z " fill="#0B6FA5" transform="translate(16,2)"/>
<path d="M0 0 C4 1 4 1 5 2 C4.4 8.6 4.4 8.6 2 11 C0.35 11 -1.3 11 -3 11 C-2.01 7.37 -1.02 3.74 0 0 Z " fill="#C33C21" transform="translate(27,10)"/>
<path d="M0 0 C2.97 0.495 2.97 0.495 6 1 C6.19335938 1.61488281 6.38671875 2.22976562 6.5859375 2.86328125 C6.84632812 3.67152344 7.10671875 4.47976562 7.375 5.3125 C7.63023438 6.11300781 7.88546875 6.91351563 8.1484375 7.73828125 C8.98831811 10.22724528 8.98831811 10.22724528 11 13 C7.93617261 12.67567593 7.01029035 12.01098513 4.859375 9.71484375 C4.16328125 8.79832031 3.4671875 7.88179687 2.75 6.9375 C2.04359375 6.01839844 1.3371875 5.09929688 0.609375 4.15234375 C0.07828125 3.44207031 -0.4528125 2.73179688 -1 2 C-0.67 1.34 -0.34 0.68 0 0 Z " fill="#D7532F" transform="translate(11,17)"/>
<path d="M0 0 C2.375 -0.125 2.375 -0.125 5 0 C7 2 7 2 7.25 4.5 C7 7 7 7 5 9 C3.68 9 2.36 9 1 9 C0.67 6.03 0.34 3.06 0 0 Z " fill="#94D1F3" transform="translate(19,4)"/>
<path d="M0 0 C0.66 0 1.32 0 2 0 C3.5078125 1.75 3.5078125 1.75 5.125 4 C5.66382813 4.7425 6.20265625 5.485 6.7578125 6.25 C7.16773438 6.8275 7.57765625 7.405 8 8 C7 9 7 9 4.625 9.25 C2 9 2 9 0.125 7.875 C-1.55290631 5.07848948 -0.74875648 3.06309468 0 0 Z " fill="#287536" transform="translate(9,19)"/>
<path d="M0 0 C2.97 0.33 5.94 0.66 9 1 C8 5 8 5 5 7 C1.48275862 6.48275862 1.48275862 6.48275862 0 5 C-0.04063832 3.33382885 -0.042721 1.66611905 0 0 Z " fill="#F09915" transform="translate(20,20)"/>
<path d="M0 0 C0.33 1.32 0.66 2.64 1 4 C-0.98 4.99 -2.96 5.98 -5 7 C-6.65 5.02 -8.3 3.04 -10 1 C-6.7 0.67 -3.4 0.34 0 0 Z " fill="#48A74D" transform="translate(19,8)"/>
<path d="M0 0 C1 3 1 3 -0.4375 6.1875 C-1.2109375 7.5796875 -1.2109375 7.5796875 -2 9 C-2.99 9 -3.98 9 -5 9 C-5.33 6.69 -5.66 4.38 -6 2 C-4.02 1.34 -2.04 0.68 0 0 Z " fill="#34A0E3" transform="translate(26,12)"/>
<path d="M0 0 C2.97 0.495 2.97 0.495 6 1 C6.33 1.99 6.66 2.98 7 4 C4 6 4 6 1.3125 5.625 C0.549375 5.41875 -0.21375 5.2125 -1 5 C-0.67 3.35 -0.34 1.7 0 0 Z " fill="#A3CA35" transform="translate(6,13)"/>
<path d="M0 0 C1.32 0 2.64 0 4 0 C4.433125 0.825 4.86625 1.65 5.3125 2.5 C6.1478125 3.7375 6.1478125 3.7375 7 5 C10.62599422 5.41725678 10.62599422 5.41725678 14 5 C14 5.66 14 6.32 14 7 C8.03380565 8.55121053 8.03380565 8.55121053 5.234375 7.05859375 C2.55165364 4.87725478 1.10098139 3.30294416 0 0 Z " fill="#46A548" transform="translate(4,22)"/>
<path d="M0 0 C0.66 0 1.32 0 2 0 C2.66 2.97 3.32 5.94 4 9 C5.32 9.33 6.64 9.66 8 10 C6.68 10.33 5.36 10.66 4 11 C1.29727467 8.12835434 0.05208163 6.69008159 -0.25 2.6875 C-0.1675 1.800625 -0.085 0.91375 0 0 Z " fill="#E97A1F" transform="translate(18,19)"/>
<path d="M0 0 C-1 2 -1 2 -3.5 2.875 C-6.18259554 3.72882071 -6.18259554 3.72882071 -6.8125 6.125 C-6.874375 6.74375 -6.93625 7.3625 -7 8 C-7.66 8 -8.32 8 -9 8 C-9.36407767 3.50970874 -9.36407767 3.50970874 -7.75 1.25 C-5.03027335 -0.69266189 -3.07077395 -1.53538697 0 0 Z " fill="#1191E2" transform="translate(16,2)"/>
<path d="M0 0 C0.66 0 1.32 0 2 0 C2.45572917 1.98567708 2.91145833 3.97135417 3.3671875 5.95703125 C3.98007723 8.27742974 3.98007723 8.27742974 6 11 C4.125 10.6875 4.125 10.6875 2 10 C-0.4294516 6.3558226 -0.16179575 4.28758728 0 0 Z " fill="#E25F26" transform="translate(16,19)"/>
<path d="M0 0 C1.98 0.495 1.98 0.495 4 1 C3.67 2.32 3.34 3.64 3 5 C1.68 4.67 0.36 4.34 -1 4 C-0.67 2.68 -0.34 1.36 0 0 Z " fill="#B0DFF7" transform="translate(21,6)"/>
<path d="M0 0 C1.65 1.65 3.3 3.3 5 5 C3.35 5.33 1.7 5.66 0 6 C0 4.02 0 2.04 0 0 Z " fill="#1D511E" transform="translate(12,22)"/>
<path d="M0 0 C-0.33 1.32 -0.66 2.64 -1 4 C-2.65 4 -4.3 4 -6 4 C-6 3.01 -6 2.02 -6 1 C-3.92446352 0.4465236 -2.15634036 0 0 0 Z " fill="#F9B30F" transform="translate(29,21)"/>
<path d="M0 0 C3.875 0.875 3.875 0.875 5 2 C5.04063832 3.66617115 5.042721 5.33388095 5 7 C4.01 5.68 3.02 4.36 2 3 C1.01 3.495 1.01 3.495 0 4 C0 2.68 0 1.36 0 0 Z " fill="#D05537" transform="translate(27,10)"/>
</svg>
