<svg xmlns="http://www.w3.org/2000/svg" width="297" height="221" fill="none"><g filter="url(#a)"><rect width="258" height="151.114" x="19.35" y="46" fill="#fff" rx="2.764" shape-rendering="crispEdges"/><rect width="258.921" height="152.036" x="18.889" y="45.539" stroke="#E9E9E9" stroke-width=".921" rx="3.225" shape-rendering="crispEdges"/><path fill="#F9F9F9" stroke="#E9E9E9" stroke-width=".283" d="M30.767 55.356h67.77c.705 0 1.276.571 1.276 1.275v67.771c0 .704-.571 1.275-1.276 1.275h-67.77a1.275 1.275 0 0 1-1.275-1.275v-67.77c0-.705.57-1.276 1.275-1.276Z"/><path stroke="#828282" stroke-linecap="round" stroke-linejoin="round" stroke-width=".567" d="M78.038 73.307H51.267a3.824 3.824 0 0 0-3.825 3.824v26.771a3.824 3.824 0 0 0 3.825 3.824h26.77a3.824 3.824 0 0 0 3.825-3.824v-26.77a3.824 3.824 0 0 0-3.824-3.825Z"/><path stroke="#828282" stroke-linecap="round" stroke-linejoin="round" stroke-width=".567" d="M57.96 86.692a2.868 2.868 0 1 0 0-5.736 2.868 2.868 0 0 0 0 5.736ZM81.862 96.253l-9.561-9.56-21.034 21.033"/><path stroke="#E9E9E9" stroke-linecap="round" stroke-width="1.844" d="M30.272 148.075h67.941M30.272 167.327h48.69"/><path fill="#F9F9F9" stroke="#E9E9E9" stroke-width=".283" d="M113.372 55.356h67.77c.705 0 1.275.571 1.276 1.275v67.771c0 .704-.571 1.275-1.276 1.275h-67.77a1.275 1.275 0 0 1-1.276-1.275v-67.77c0-.705.571-1.276 1.276-1.276Z"/><path stroke="#828282" stroke-linecap="round" stroke-linejoin="round" stroke-width=".567" d="M160.642 73.306h-26.771a3.824 3.824 0 0 0-3.824 3.825v26.771a3.824 3.824 0 0 0 3.824 3.824h26.771a3.825 3.825 0 0 0 3.825-3.824V77.131a3.825 3.825 0 0 0-3.825-3.825Z"/><path stroke="#828282" stroke-linecap="round" stroke-linejoin="round" stroke-width=".567" d="M140.564 86.692a2.868 2.868 0 1 0 0-5.736 2.868 2.868 0 0 0 0 5.736ZM164.467 96.253l-9.561-9.561-21.035 21.034"/><path stroke="#E9E9E9" stroke-linecap="round" stroke-width="1.844" d="M112.877 148.075h67.94M112.877 167.327h48.69"/><path fill="#F9F9F9" stroke="#E9E9E9" stroke-width=".283" d="M195.977 55.356h67.771c.704 0 1.275.571 1.275 1.275v67.771c0 .704-.571 1.275-1.275 1.275h-67.771a1.275 1.275 0 0 1-1.275-1.275v-67.77c0-.705.571-1.276 1.275-1.276Z"/><path stroke="#828282" stroke-linecap="round" stroke-linejoin="round" stroke-width=".567" d="M243.249 73.306h-26.771a3.825 3.825 0 0 0-3.825 3.825v26.771a3.825 3.825 0 0 0 3.825 3.824h26.771a3.824 3.824 0 0 0 3.824-3.824V77.131a3.824 3.824 0 0 0-3.824-3.825Z"/><path stroke="#828282" stroke-linecap="round" stroke-linejoin="round" stroke-width=".567" d="M223.17 86.692a2.868 2.868 0 1 0 .001-5.737 2.868 2.868 0 0 0-.001 5.737ZM247.073 96.253l-9.561-9.561-21.034 21.034"/><path stroke="#E9E9E9" stroke-linecap="round" stroke-width="1.844" d="M195.481 148.075h67.941M195.481 167.327h48.69"/></g><rect width="257.079" height="35.936" x="19.811" y=".461" fill="#fff" stroke="#E9E9E9" stroke-width=".921" rx="2.304"/><path stroke="#828282" stroke-linecap="round" stroke-linejoin="round" stroke-width="1.843" d="M42.539 23.804a6.143 6.143 0 1 0 0-12.286 6.143 6.143 0 0 0 0 12.286ZM50.217 25.34 46.877 22"/><path fill="#828282" d="M72.609 16.178a1.438 1.438 0 0 0-.669-1.08c-.39-.257-.87-.385-1.438-.385-.416 0-.779.067-1.09.201-.309.135-.55.32-.724.554a1.329 1.329 0 0 0-.257.802c0 .25.06.466.179.646.122.177.278.325.467.444.19.116.388.213.596.289.207.073.398.133.572.179l.953.256c.244.064.516.153.816.266.302.113.59.267.865.462.278.193.507.44.687.743.18.302.27.673.27 1.113 0 .507-.132.965-.398 1.374-.263.41-.647.735-1.154.976-.504.241-1.117.362-1.837.362-.672 0-1.254-.109-1.746-.325a2.782 2.782 0 0 1-1.154-.907 2.588 2.588 0 0 1-.472-1.352h1.173c.03.354.15.648.357.88.21.229.477.4.797.513.324.11.672.165 1.045.165.433 0 .823-.07 1.168-.211.345-.144.618-.342.82-.596.201-.256.302-.556.302-.898 0-.311-.087-.565-.26-.76a1.916 1.916 0 0 0-.688-.476 7.228 7.228 0 0 0-.92-.321l-1.155-.33c-.733-.21-1.313-.511-1.741-.902-.427-.391-.641-.903-.641-1.535 0-.525.142-.983.426-1.374a2.83 2.83 0 0 1 1.154-.916 3.898 3.898 0 0 1 1.626-.33c.605 0 1.143.108 1.613.325.47.214.843.507 1.118.88.278.372.424.795.44 1.268h-1.1Zm4.03 2.804v4.233h-1.081v-9.382h1.081v3.445h.092a1.99 1.99 0 0 1 .742-.866c.333-.217.776-.325 1.328-.325.48 0 .9.096 1.26.288.36.19.64.482.838.875.202.391.303.89.303 1.494v4.47H80.12v-4.397c0-.559-.145-.99-.436-1.296-.287-.309-.685-.463-1.195-.463-.355 0-.672.075-.953.224a1.64 1.64 0 0 0-.66.656c-.158.287-.238.635-.238 1.044Zm9.4 4.38c-.636 0-1.194-.152-1.673-.454a3.08 3.08 0 0 1-1.118-1.269c-.265-.544-.398-1.179-.398-1.906 0-.733.133-1.373.398-1.92a3.074 3.074 0 0 1 1.118-1.273c.48-.302 1.037-.453 1.672-.453s1.191.151 1.668.453c.479.303.852.727 1.117 1.274.27.546.403 1.186.403 1.92 0 .726-.134 1.361-.403 1.905a3.039 3.039 0 0 1-1.117 1.269c-.477.302-1.033.453-1.668.453Zm0-.972c.482 0 .879-.123 1.19-.37.312-.248.542-.573.692-.976.15-.404.224-.84.224-1.31 0-.471-.075-.91-.224-1.315a2.216 2.216 0 0 0-.692-.985c-.311-.25-.708-.376-1.19-.376-.483 0-.88.125-1.192.376-.311.25-.542.578-.692.985-.15.406-.224.844-.224 1.314 0 .47.075.907.224 1.31.15.404.38.729.692.976.312.248.709.371 1.191.371Zm7.788.971c-.678 0-1.263-.15-1.755-.448a3.013 3.013 0 0 1-1.131-1.265c-.263-.543-.394-1.176-.394-1.896 0-.721.131-1.356.394-1.906a3.108 3.108 0 0 1 1.108-1.292c.477-.311 1.033-.467 1.668-.467.366 0 .728.06 1.086.183.357.122.682.32.975.596.293.271.527.632.701 1.08.174.45.261 1.002.261 1.659v.458h-5.423v-.934h4.324c0-.397-.08-.752-.238-1.063a1.795 1.795 0 0 0-.67-.738 1.873 1.873 0 0 0-1.016-.27c-.43 0-.803.107-1.118.32-.311.211-.551.486-.719.825a2.422 2.422 0 0 0-.252 1.09v.623c0 .532.092.982.275 1.352.186.366.444.646.774.838.33.19.713.284 1.15.284.284 0 .54-.04.77-.119a1.65 1.65 0 0 0 .6-.366c.168-.165.297-.37.389-.614l1.044.293c-.11.354-.294.666-.554.934a2.7 2.7 0 0 1-.962.623c-.382.147-.81.22-1.287.22Z"/><path fill="#25252D" d="M99.96 10.81v15.428h-.915V10.81h.916Z"/><defs><filter id="a" width="296.7" height="189.814" x="0" y="32.179" color-interpolation-filters="sRGB" filterUnits="userSpaceOnUse"><feFlood flood-opacity="0" result="BackgroundImageFix"/><feColorMatrix in="SourceAlpha" result="hardAlpha" values="0 0 0 0 0 0 0 0 0 0 0 0 0 0 0 0 0 0 127 0"/><feOffset dy="5.529"/><feGaussianBlur stdDeviation="9.214"/><feComposite in2="hardAlpha" operator="out"/><feColorMatrix values="0 0 0 0 0 0 0 0 0 0 0 0 0 0 0 0 0 0 0.08 0"/><feBlend in2="BackgroundImageFix" result="effect1_dropShadow_1998_25316"/><feBlend in="SourceGraphic" in2="effect1_dropShadow_1998_25316" result="shape"/></filter></defs></svg>